<!DOCTYPE svg PUBLIC "-//W3C//DTD SVG 1.1//EN" "http://www.w3.org/Graphics/SVG/1.1/DTD/svg11.dtd">
<!-- Uploaded to: SVG Repo, www.svgrepo.com, Transformed by: SVG Repo Mixer Tools -->
<svg fill="#ffffff" height="256px" width="256px" version="1.1" id="Capa_1" xmlns="http://www.w3.org/2000/svg" xmlns:xlink="http://www.w3.org/1999/xlink" viewBox="-44.07 -44.07 577.85 577.85" xml:space="preserve" stroke="#ffffff" stroke-width="24.48565">
<g id="SVGRepo_bgCarrier" stroke-width="0"/>
<g id="SVGRepo_tracerCarrier" stroke-linecap="round" stroke-linejoin="round" stroke="#CCCCCC" stroke-width="0.9794260000000001"/>
<g id="SVGRepo_iconCarrier"> <g> <path d="M483.4,454.444l-121.3-121.4c28.7-35.2,46-80,46-128.9c0-112.5-91.5-204.1-204.1-204.1S0,91.644,0,204.144 s91.5,204,204.1,204c48.8,0,93.7-17.3,128.9-46l121.3,121.3c8.3,8.3,20.9,8.3,29.2,0S491.8,462.744,483.4,454.444z M40.7,204.144 c0-90.1,73.2-163.3,163.3-163.3s163.4,73.3,163.4,163.4s-73.3,163.4-163.4,163.4S40.7,294.244,40.7,204.144z"/> </g> </g>
</svg>